<svg id="Layer_1" data-name="Layer 1" xmlns="http://www.w3.org/2000/svg" viewBox="0 0 1994.47 2007.15"><defs><style>.cls-1{fill:#5dc5c6;}</style></defs><title>Cyanix-Tech-Logo-SVG</title><path class="cls-1" d="M1193.69,68.1C1417-43.21,1732.55,57.26,1855.81,201.59c236.53,277,197.31,601.16,19.3,809.93-179.53,210.56-438.77,253.68-680.21,156C1491.1,801,1492,433.76,1193.69,68.1Z" transform="translate(-26.53 -20.57)"/><path class="cls-1" d="M871.1,1189.32c369,325.84,781.91,282.06,1093,4.87,100.79,190.87,60.11,480.73-117.29,656.59C1647,2048.86,1362.67,2063,1164.17,1966,870.2,1822.44,761.88,1501.8,871.1,1189.32Z" transform="translate(-26.53 -20.57)"/><path class="cls-1" d="M862.77,1980.57c-343.84,106.72-550.39,28.56-716.19-196.89C3.43,1589,5.86,1248.18,143.66,1071.1,320.45,843.92,602.08,774.69,841.58,873.89,573.78,1244.86,551.9,1613.65,862.77,1980.57Z" transform="translate(-26.53 -20.57)"/><path class="cls-1" d="M1170.34,852.16c-397.67-352.29-823.22-250.07-1098-3.32-99.59-211.5-27.69-509.74,128.22-657.3C429.53-25.18,747-22.21,963.43,129.06,1153.79,262.1,1284.87,518.78,1170.34,852.16Z" transform="translate(-26.53 -20.57)"/></svg>